<?xml version="1.0" encoding="UTF-8" standalone="no"?><!-- Generator: Gravit.io --><svg xmlns="http://www.w3.org/2000/svg" xmlns:xlink="http://www.w3.org/1999/xlink" style="isolation:isolate" viewBox="1535.5 810.402 865.082 704.366" width="865.082pt" height="704.366pt"><g><mask id="_mask_A0Kt4DwGhm7vY8Ww9JfFwwR6in3LYeDM"><path d=" M 1661.178 1162 C 1661.178 984.835 1805.014 841 1982.178 841 C 2159.343 841 2303.178 984.835 2303.178 1162 C 2303.178 1339.165 2159.343 1483 1982.178 1483 C 1805.014 1483 1661.178 1339.165 1661.178 1162 Z " fill="white" stroke="none"/></mask><g mask="url(#_mask_A0Kt4DwGhm7vY8Ww9JfFwwR6in3LYeDM)"><defs><filter id="cmq9gbuLBqrf2qsc0TsQ7zUZ3w76teLh" x="-200%" y="-200%" width="400%" height="400%" filterUnits="objectBoundingBox" color-interpolation-filters="sRGB"><feOffset xmlns="http://www.w3.org/2000/svg" in="SourceGraphic" dx="20" dy="20"/><feGaussianBlur xmlns="http://www.w3.org/2000/svg" stdDeviation="34.348872502712226" result="pf_100_offsetBlur"/><feComposite xmlns="http://www.w3.org/2000/svg" in="SourceGraphic" in2="pf_100_offsetBlur" result="pf_100_inverse" operator="out"/><feFlood xmlns="http://www.w3.org/2000/svg" flood-color="#003853" flood-opacity="1" result="pf_100_color"/><feComposite xmlns="http://www.w3.org/2000/svg" in="pf_100_color" in2="pf_100_inverse" operator="in" result="pf_100_shadow"/><feComposite xmlns="http://www.w3.org/2000/svg" in="pf_100_shadow" in2="SourceGraphic" operator="over"/></filter></defs><g filter="url(#cmq9gbuLBqrf2qsc0TsQ7zUZ3w76teLh)"><path d=" M 1661.178 1162 C 1661.178 984.835 1805.014 841 1982.178 841 C 2159.343 841 2303.178 984.835 2303.178 1162 C 2303.178 1339.165 2159.343 1483 1982.178 1483 C 1805.014 1483 1661.178 1339.165 1661.178 1162 Z " fill="rgb(4,120,161)"/></g><g style="mix-blend-mode:pin_light;"><path d=" M 1836.26 866.597 C 1811.753 819.089 1861.934 827.063 1884.523 855.086 C 1957.047 933.625 1991.584 1014.238 2084.312 1101.848 C 2181.631 1193.796 2391.932 1290.46 2274.284 1293.24" fill="none" vector-effect="non-scaling-stroke" stroke-width="15" stroke="rgb(158,191,224)" stroke-linejoin="bevel" stroke-linecap="square" stroke-miterlimit="3"/><path d=" M 1667.058 1063.322 C 1596.35 1049.477 1722.285 1092.97 1921.318 1076.352 C 2120.352 1059.733 2193.139 1076.475 2262.67 1107.956 C 2266.504 1109.692 2270.234 1111.483 2273.848 1113.318 C 2329.884 1141.782 2364.619 1196.838 2311.627 1193.789" fill="none" vector-effect="non-scaling-stroke" stroke-width="20" stroke="rgb(92,131,160)" stroke-linejoin="miter" stroke-linecap="square" stroke-miterlimit="3"/><path d=" M 1785.644 888.686 C 1749.559 838.953 1830.603 826.079 1866.151 875.739 C 1900.315 912.736 1923.413 951.828 1947.984 991.99 C 1975.572 1037.084 2005.016 1083.527 2054.063 1129.866 C 2105.26 1178.237 2138.371 1193.802 2245.268 1260.345 C 2352.166 1326.887 2311.378 1351.442 2271.69 1330.486" fill="none" vector-effect="non-scaling-stroke" stroke-width="30" stroke="rgb(4,120,161)" stroke-linejoin="bevel" stroke-linecap="square" stroke-miterlimit="3"/><path d=" M 1750.445 927.636 C 1716.924 893.628 1765.193 842.105 1807.285 916.048 C 1854.907 1011.757 1873.092 1097.675 1937.569 1207.752 C 1982.111 1283.796 2128.884 1372.939 2165.303 1415.143 C 2203.703 1457.523 2155.277 1485.53 2136.223 1450.277" fill="none" vector-effect="non-scaling-stroke" stroke-width="15" stroke="rgb(158,191,224)" stroke-linejoin="bevel" stroke-linecap="square" stroke-miterlimit="3"/><path d=" M 1642.667 1114.232 C 1564.873 1102.537 1583.462 1195.763 1863.519 1201.051 C 1935.832 1202.417 1974.842 1198.268 2035.054 1201.466 C 2116.941 1205.816 2193.689 1196.811 2266.523 1229.834 C 2364.71 1274.352 2328.715 1241.323 2316.493 1238.804" fill="none" vector-effect="non-scaling-stroke" stroke-width="45" stroke="rgb(0,56,83)" stroke-linejoin="miter" stroke-linecap="square" stroke-miterlimit="3"/><path d=" M 1690.582 965.298 C 1651.835 938.432 1611.717 919.392 1663.615 973.945 C 1715.513 1028.498 1784.693 1070.958 2002.234 1174.029 C 2219.776 1277.1 2292.51 1481.063 2226.869 1410.086" fill="none" vector-effect="non-scaling-stroke" stroke-width="60" stroke="rgb(4,174,217)" stroke-linejoin="miter" stroke-linecap="square" stroke-miterlimit="3"/></g><path d=" M 1835.378 1354.8 L 1835.378 1354.8 L 1835.378 1354.8 Q 1804.778 1354.8 1788.478 1335.5 L 1788.478 1335.5 L 1788.478 1335.5 Q 1772.178 1316.2 1772.178 1283.2 L 1772.178 1283.2 L 1772.178 1283.2 Q 1772.178 1250.2 1789.478 1231 L 1789.478 1231 L 1789.478 1231 Q 1806.778 1211.8 1837.578 1211.8 L 1837.578 1211.8 L 1837.578 1211.8 Q 1854.378 1211.8 1870.978 1217.6 L 1870.978 1217.6 L 1865.378 1240 L 1865.378 1240 Q 1853.178 1234.8 1836.578 1234.8 L 1836.578 1234.8 L 1836.578 1234.8 Q 1819.978 1234.8 1810.578 1247.4 L 1810.578 1247.4 L 1810.578 1247.4 Q 1801.178 1260 1801.178 1282.2 L 1801.178 1282.2 L 1801.178 1282.2 Q 1801.178 1304.4 1809.978 1318.1 L 1809.978 1318.1 L 1809.978 1318.1 Q 1818.778 1331.8 1834.778 1331.8 L 1834.778 1331.8 L 1834.778 1331.8 Q 1846.778 1331.8 1868.978 1324 L 1868.978 1324 L 1874.978 1344.4 L 1874.978 1344.4 Q 1856.778 1354.8 1835.378 1354.8 Z  M 1947.578 1354.6 L 1947.578 1354.6 L 1947.578 1354.6 Q 1918.178 1354.6 1903.178 1334.3 L 1903.178 1334.3 L 1903.178 1334.3 Q 1888.178 1314 1888.178 1282.6 L 1888.178 1282.6 L 1888.178 1282.6 Q 1888.178 1251.2 1903.278 1231.4 L 1903.278 1231.4 L 1903.278 1231.4 Q 1918.378 1211.6 1947.678 1211.6 L 1947.678 1211.6 L 1947.678 1211.6 Q 1976.978 1211.6 1992.178 1231.4 L 1992.178 1231.4 L 1992.178 1231.4 Q 2007.378 1251.2 2007.378 1282.6 L 2007.378 1282.6 L 2007.378 1282.6 Q 2007.378 1325.6 1981.178 1344.6 L 1981.178 1344.6 L 1981.178 1344.6 Q 1967.378 1354.6 1947.578 1354.6 Z  M 1947.978 1234.6 L 1947.978 1234.6 L 1947.978 1234.6 Q 1937.378 1234.6 1930.178 1242 L 1930.178 1242 L 1930.178 1242 Q 1917.378 1254.8 1917.378 1282.6 L 1917.378 1282.6 L 1917.378 1282.6 Q 1917.378 1303.6 1925.178 1317.5 L 1925.178 1317.5 L 1925.178 1317.5 Q 1932.978 1331.4 1948.078 1331.4 L 1948.078 1331.4 L 1948.078 1331.4 Q 1963.178 1331.4 1970.778 1317.3 L 1970.778 1317.3 L 1970.778 1317.3 Q 1978.378 1303.2 1978.378 1282.9 L 1978.378 1282.9 L 1978.378 1282.9 Q 1978.378 1262.6 1970.278 1248.6 L 1970.278 1248.6 L 1970.278 1248.6 Q 1962.178 1234.6 1947.978 1234.6 Z  M 2052.778 1213.6 L 2052.778 1353.6 L 2023.778 1353.6 L 2023.778 1213.6 L 2052.778 1213.6 L 2052.778 1213.6 Z  M 2185.578 1213.6 L 2185.578 1353.8 L 2155.178 1353.8 L 2107.778 1267.6 L 2107.778 1353.6 L 2078.178 1353.6 L 2078.178 1213.6 L 2107.778 1213.6 L 2156.578 1304 L 2156.578 1213.6 L 2185.578 1213.6 L 2185.578 1213.6 Z  M 1858.778 971.4 L 1858.778 971.4 L 1853.978 994.8 L 1841.578 991.4 L 1841.578 991.4 Q 1828.378 988.4 1818.578 988.4 L 1818.578 988.4 L 1818.578 988.4 Q 1804.978 988.4 1804.978 1001.4 L 1804.978 1001.4 L 1804.978 1001.4 Q 1804.978 1006.4 1809.678 1010.5 L 1809.678 1010.5 L 1809.678 1010.5 Q 1814.378 1014.6 1821.578 1017.3 L 1821.578 1017.3 L 1821.578 1017.3 Q 1828.778 1020 1836.978 1024 L 1836.978 1024 L 1836.978 1024 Q 1845.178 1028 1852.378 1032.6 L 1852.378 1032.6 L 1852.378 1032.6 Q 1859.578 1037.2 1864.278 1045.2 L 1864.278 1045.2 L 1864.278 1045.2 Q 1868.978 1053.2 1868.978 1063.6 L 1868.978 1063.6 L 1868.978 1063.6 Q 1868.978 1084.2 1855.678 1095.9 L 1855.678 1095.9 L 1855.678 1095.9 Q 1842.378 1107.6 1818.178 1107.6 L 1818.178 1107.6 L 1818.178 1107.6 Q 1805.778 1107.6 1793.478 1104.3 L 1793.478 1104.3 L 1793.478 1104.3 Q 1781.178 1101 1773.178 1096.6 L 1773.178 1096.6 L 1781.778 1075.2 L 1781.778 1075.2 Q 1800.178 1083.6 1818.178 1083.6 L 1818.178 1083.6 L 1818.178 1083.6 Q 1828.378 1083.6 1834.178 1078.9 L 1834.178 1078.9 L 1834.178 1078.9 Q 1839.978 1074.2 1839.978 1066.8 L 1839.978 1066.8 L 1839.978 1066.8 Q 1839.978 1059.4 1833.378 1054.5 L 1833.378 1054.5 L 1833.378 1054.5 Q 1826.778 1049.6 1817.378 1045.7 L 1817.378 1045.7 L 1817.378 1045.7 Q 1807.978 1041.8 1798.578 1036.9 L 1798.578 1036.9 L 1798.578 1036.9 Q 1789.178 1032 1782.578 1023.1 L 1782.578 1023.1 L 1782.578 1023.1 Q 1775.978 1014.2 1775.978 1002 L 1775.978 1002 L 1775.978 1002 Q 1775.978 983.8 1787.378 974.1 L 1787.378 974.1 L 1787.378 974.1 Q 1798.778 964.4 1818.078 964.4 L 1818.078 964.4 L 1818.078 964.4 Q 1837.378 964.4 1858.778 971.4 Z  M 1951.178 966.4 L 1993.578 1106.4 L 1964.778 1106.4 L 1954.778 1072.2 L 1912.578 1072.2 L 1902.778 1106.4 L 1874.978 1106.4 L 1916.978 966.4 L 1951.178 966.4 L 1951.178 966.4 Z  M 1918.378 1049.2 L 1949.378 1049.2 L 1933.978 991.6 L 1918.378 1049.2 L 1918.378 1049.2 Z  M 2006.378 966.4 L 2089.978 966.4 L 2089.978 989.4 L 2035.378 989.4 L 2035.378 1018.8 L 2085.178 1018.8 L 2085.178 1042.2 L 2035.378 1042.2 L 2035.378 1106.4 L 2006.378 1106.4 L 2006.378 966.4 L 2006.378 966.4 Z  M 2191.778 1083.4 L 2191.778 1106.4 L 2108.378 1106.4 L 2108.378 966.4 L 2191.778 966.4 L 2191.778 989.4 L 2137.378 989.4 L 2137.378 1018.8 L 2186.778 1018.8 L 2186.778 1042.2 L 2137.378 1042.2 L 2137.378 1083.4 L 2191.778 1083.4 L 2191.778 1083.4 Z " fill="rgb(255,255,255)"/><defs><filter id="SUR4U2r27TDCJeM8dglUK8RATICE1umK" x="-200%" y="-200%" width="400%" height="400%" filterUnits="objectBoundingBox" color-interpolation-filters="sRGB"><feOffset xmlns="http://www.w3.org/2000/svg" in="SourceGraphic" dx="20" dy="20"/><feGaussianBlur xmlns="http://www.w3.org/2000/svg" stdDeviation="34.348872502712226" result="pf_100_offsetBlur"/><feComposite xmlns="http://www.w3.org/2000/svg" in="SourceGraphic" in2="pf_100_offsetBlur" result="pf_100_inverse" operator="out"/><feFlood xmlns="http://www.w3.org/2000/svg" flood-color="#003853" flood-opacity="1" result="pf_100_color"/><feComposite xmlns="http://www.w3.org/2000/svg" in="pf_100_color" in2="pf_100_inverse" operator="in" result="pf_100_shadow"/><feComposite xmlns="http://www.w3.org/2000/svg" in="pf_100_shadow" in2="SourceGraphic" operator="over"/></filter></defs></g></g></svg>